<svg width="46" height="46" viewBox="0 0 46 46" fill="none" xmlns="http://www.w3.org/2000/svg">
<rect y="6.51233" width="6.51235" height="6.51235" fill="black"/>
<path d="M0 6.51235L6.51235 0V6.51235H0Z" fill="black"/>
<rect x="13.0244" y="6.51233" width="6.51235" height="6.51235" fill="black"/>
<rect x="13.0244" y="13.0247" width="6.51235" height="6.51235" fill="#00E0FF"/>
<rect x="13.0244" y="19.537" width="6.51235" height="6.51235" fill="black"/>
<rect x="13.0244" y="26.0494" width="6.51235" height="6.51235" fill="#00E0FF"/>
<rect x="13.0244" y="32.5617" width="6.51235" height="6.51235" fill="black"/>
<rect x="26.0493" y="6.51233" width="6.51235" height="6.51235" fill="black"/>
<rect x="26.0493" y="13.0247" width="6.51235" height="6.51235" fill="#00E0FF"/>
<rect x="26.0493" y="19.537" width="6.51235" height="6.51235" fill="black"/>
<rect x="26.0493" y="26.0494" width="6.51235" height="6.51235" fill="#00E0FF"/>
<rect x="26.0493" y="32.5617" width="6.51235" height="6.51235" fill="black"/>
<rect x="6.51221" width="6.51235" height="6.51235" fill="black"/>
<rect x="6.51221" y="6.51233" width="6.51235" height="6.51235" fill="#00E0FF"/>
<rect x="6.51221" y="13.0247" width="6.51235" height="6.51235" fill="black"/>
<rect x="6.51221" y="26.0494" width="6.51235" height="6.51235" fill="black"/>
<rect x="6.51221" y="32.5617" width="6.51235" height="6.51235" fill="#00E0FF"/>
<rect y="32.5617" width="6.51235" height="6.51235" fill="black"/>
<rect x="6.51221" y="39.0741" width="6.51235" height="6.51235" fill="black"/>
<path d="M0 39.0741H6.51235V45.5864L0 39.0741Z" fill="black"/>
<rect x="19.5371" y="13.0247" width="6.51235" height="6.51235" fill="black"/>
<rect x="19.5371" y="19.537" width="6.51235" height="6.51235" fill="#00E0FF"/>
<rect x="19.5371" y="26.0494" width="6.51235" height="6.51235" fill="black"/>
<rect x="32.5615" width="6.51235" height="6.51235" fill="black"/>
<rect x="32.5615" y="6.51233" width="6.51235" height="6.51235" fill="#00E0FF"/>
<rect x="32.5615" y="13.0247" width="6.51235" height="6.51235" fill="black"/>
<rect x="32.5615" y="26.0494" width="6.51235" height="6.51235" fill="black"/>
<rect x="32.5615" y="32.5617" width="6.51235" height="6.51235" fill="#00E0FF"/>
<rect x="39.0742" y="32.5617" width="6.51235" height="6.51235" fill="black"/>
<rect x="32.5615" y="39.0741" width="6.51235" height="6.51235" fill="black"/>
<path d="M39.0742 39.0741H45.5866L39.0742 45.5864V39.0741Z" fill="black"/>
<rect x="39.0742" y="6.51233" width="6.51235" height="6.51235" fill="black"/>
<path d="M39.0742 0L45.5866 6.51235H39.0742V0Z" fill="black"/>
</svg>
