<svg width="55" height="55" viewBox="0 0 55 55" fill="none" xmlns="http://www.w3.org/2000/svg">
<rect y="7.85712" width="7.85714" height="7.85714" fill="black"/>
<rect y="15.7143" width="7.85714" height="7.85714" fill="black"/>
<rect y="23.5714" width="7.85714" height="7.85714" fill="black"/>
<rect x="15.7144" width="7.85714" height="7.85714" fill="black"/>
<rect x="15.7144" y="7.85712" width="7.85714" height="7.85714" fill="#FF0000"/>
<rect x="15.7144" y="15.7143" width="7.85714" height="7.85714" fill="#FF0000"/>
<rect x="15.7144" y="23.5714" width="7.85714" height="7.85714" fill="#FF0000"/>
<rect x="15.7144" y="31.4285" width="7.85714" height="7.85714" fill="#FF0000"/>
<rect x="15.7144" y="39.2856" width="7.85714" height="7.85714" fill="black"/>
<rect x="31.4282" width="7.85714" height="7.85714" fill="black"/>
<rect x="31.4282" y="7.85712" width="7.85714" height="7.85714" fill="#FF0000"/>
<rect x="31.4282" y="15.7143" width="7.85714" height="7.85714" fill="#FF0000"/>
<rect x="31.4282" y="23.5714" width="7.85714" height="7.85714" fill="#FF0000"/>
<rect x="31.4282" y="31.4285" width="7.85714" height="7.85714" fill="#FF0000"/>
<rect x="31.4282" y="39.2856" width="7.85714" height="7.85714" fill="black"/>
<rect x="7.85693" width="7.85714" height="7.85714" fill="black"/>
<rect x="7.85693" y="7.85712" width="7.85714" height="7.85714" fill="white"/>
<rect x="7.85693" y="15.7143" width="7.85714" height="7.85714" fill="white"/>
<rect x="7.85693" y="23.5714" width="7.85714" height="7.85714" fill="#FF0000"/>
<rect x="7.85693" y="31.4285" width="7.85714" height="7.85714" fill="black"/>
<rect x="23.5713" y="7.85712" width="7.85714" height="7.85714" fill="black"/>
<rect x="23.5713" y="15.7143" width="7.85714" height="7.85714" fill="#FF0000"/>
<rect x="23.5713" y="23.5714" width="7.85714" height="7.85714" fill="#FF0000"/>
<rect x="23.5713" y="31.4285" width="7.85714" height="7.85714" fill="#FF0000"/>
<rect x="23.5713" y="39.2856" width="7.85714" height="7.85714" fill="#FF0000"/>
<rect x="23.5713" y="47.1428" width="7.85714" height="7.85714" fill="black"/>
<rect x="39.2861" width="7.85714" height="7.85714" fill="black"/>
<rect x="39.2861" y="7.85712" width="7.85714" height="7.85714" fill="#FF0000"/>
<rect x="39.2861" y="15.7143" width="7.85714" height="7.85714" fill="#FF0000"/>
<rect x="39.2861" y="23.5714" width="7.85714" height="7.85714" fill="#FF0000"/>
<rect x="39.2861" y="31.4285" width="7.85714" height="7.85714" fill="black"/>
<rect x="47.1431" y="7.85712" width="7.85714" height="7.85714" fill="black"/>
<rect x="47.1431" y="15.7143" width="7.85714" height="7.85714" fill="black"/>
<rect x="47.1431" y="23.5714" width="7.85714" height="7.85714" fill="black"/>
</svg>
