<svg width="62" height="69" viewBox="0 0 62 69" fill="none" xmlns="http://www.w3.org/2000/svg">
<path d="M30.0687 54.5738C43.5736 45.7662 40.3442 36.2247 38.1423 34.0228C35.9404 31.8209 33.0046 30.353 27.1329 31.8209C21.2612 33.2889 5.11394 56.7757 2.91205 61.9134C0.710163 67.0512 2.91205 67.7851 5.11394 67.0512C7.31583 66.3172 13.1875 65.5832 30.0687 54.5738Z" fill="#FF8A00" stroke="black" stroke-width="2.52964"/>
<path d="M34.4726 31.8208C34.7172 25.4598 34.9129 11.7102 33.7386 7.60005C32.2707 2.46231 40.3443 -2.67543 41.8122 6.86609C42.9865 14.4993 41.3228 23.7472 40.3441 27.417C45.2372 22.5239 55.6105 13.6185 57.9592 17.1415C60.8951 21.5453 55.7573 28.151 51.3535 28.885C49.7617 29.1503 44.6745 31.4929 42.546 32.5302C48.6624 32.0491 60.7483 32.408 60.1611 37.6925C59.5739 42.9771 46.7051 39.8944 40.3441 37.6925L38.8762 34.7567L35.9403 32.5548L34.4726 31.8208Z" fill="#5AA200"/>
<path d="M40.3441 27.417C41.3228 23.7472 42.9865 14.4993 41.8122 6.86609C40.3443 -2.67543 32.2707 2.46231 33.7386 7.60005C34.9129 11.7102 34.7172 25.4598 34.4726 31.8208L35.9403 32.5548M40.3441 27.417L35.9403 32.5548M40.3441 27.417C45.2372 22.5239 55.6105 13.6185 57.9592 17.1415C60.8951 21.5453 55.7573 28.151 51.3536 28.885C49.7617 29.1503 44.6745 31.4929 42.546 32.5302M35.9403 32.5548L38.8762 34.7567M38.8762 34.7567C40.3513 33.8179 39.9639 33.7884 42.546 32.5302M38.8762 34.7567L40.3441 37.6925C46.7051 39.8944 59.5739 42.9771 60.1611 37.6925C60.7483 32.408 48.6624 32.0491 42.546 32.5302" stroke="black" stroke-width="1.89723"/>
<path d="M38.8763 34.7567L35.9404 32.5548L34.4727 31.8208C34.5057 30.9627 34.5378 29.9702 34.5658 28.885C36.4805 26.9947 40.6529 21.9996 42.0245 17.1415C41.67 21.4833 40.8976 25.3419 40.3442 27.417C41.2205 26.5407 42.2726 25.5357 43.423 24.4964C42.886 26.2537 41.5185 30.5607 40.3442 33.7304C40.7498 33.4559 41.3048 33.135 42.5461 32.5301C43.0167 32.4931 43.5226 32.4611 44.0554 32.4359L42.5461 38.406C41.7547 38.1656 41.0134 37.9242 40.3442 37.6925L38.8763 34.7567Z" fill="#417400"/>
<path d="M40.3441 27.417C41.3228 23.7472 42.9865 14.4993 41.8122 6.86609C40.3443 -2.67543 32.2707 2.46231 33.7386 7.60005C34.9129 11.7102 34.7172 25.4598 34.4726 31.8208L35.9403 32.5548M40.3441 27.417L35.9403 32.5548M40.3441 27.417C45.2372 22.5239 55.6105 13.6185 57.9592 17.1415C60.8951 21.5453 55.7573 28.151 51.3536 28.885C49.7617 29.1503 44.6745 31.4929 42.546 32.5302M35.9403 32.5548L38.8762 34.7567M38.8762 34.7567C40.3513 33.8179 39.9639 33.7884 42.546 32.5302M38.8762 34.7567L40.3441 37.6925C46.7051 39.8944 59.5739 42.9771 60.1611 37.6925C60.7483 32.408 48.6624 32.0491 42.546 32.5302" stroke="black" stroke-width="1.89723"/>
<path d="M29.5099 39.5274C29.0039 36.9977 26.3478 34.4681 25.083 33.5195C23.9236 33.6249 22.0474 33.9622 23.8182 34.4681C26.0316 35.1005 25.3992 36.3653 29.5099 39.5274Z" fill="#C66300"/>
<path d="M31.7233 48.6973C30.7747 46.4839 25.083 44.2705 24.7668 43.9542C25.1884 45.1137 26.6008 47.6855 28.8775 48.6973C31.1542 49.7092 31.9341 52.0702 32.0395 53.1242L33.9368 51.8594C33.5152 51.5432 32.4822 50.4681 31.7233 48.6973Z" fill="#C66300"/>
<path d="M18.1265 48.6973C17.3676 46.9266 14.6482 46.2731 13.3834 46.1677L13.0672 46.8001C14.0158 47.4325 16.1028 49.0135 16.8617 50.2784C17.6206 51.5432 19.7075 52.0702 20.6562 52.1756C20.1291 51.754 18.8854 50.4681 18.1265 48.6973Z" fill="#C66300"/>
<path d="M13.4095 56.6253C13.3997 56.6177 13.391 56.6101 13.3834 56.6025C13.3921 56.6101 13.4008 56.6177 13.4095 56.6253C13.8056 56.9346 15.9435 57.2729 17.1779 58.8159C18.1897 60.0807 18.8643 60.8185 19.0751 61.0293L18.1265 61.3455C17.3919 60.506 15.4241 58.3915 13.4095 56.6253Z" fill="#C66300"/>
<path d="M5.79449 63.559C5.26748 62.9266 4.21347 61.5985 4.21347 61.3455L3.58105 62.2942L5.79449 63.559Z" fill="#C66300"/>
<path d="M30.0687 54.5738C43.5736 45.7662 40.3442 36.2247 38.1423 34.0228C35.9404 31.8209 33.0046 30.353 27.1329 31.8209C21.2612 33.2889 5.11394 56.7757 2.91205 61.9134C0.710163 67.0512 2.91205 67.7851 5.11394 67.0512C7.31583 66.3172 13.1875 65.5832 30.0687 54.5738Z" stroke="black" stroke-width="2.52964"/>
</svg>
