<svg width="71" height="56" viewBox="0 0 71 56" fill="none" xmlns="http://www.w3.org/2000/svg">
<path d="M28.0564 12.9384C17.3732 7.00778 9.55769 17.5694 10.5633 24.5503C0.243832 23.7029 -0.907572 38.7346 8.03803 41.1316C16.9836 43.5285 50.2103 44.7614 58.3254 43.1007C66.4406 41.4401 69.7963 28.9164 55.7232 24.1868C61.0786 15.6505 48.9993 9.92101 46.3664 14.0094C44.8595 8.71745 33.4151 2.46422 28.0564 12.9384Z" fill="white"/>
<path d="M46.4268 15.9432C46.5889 15.3383 46.5578 14.6816 46.3664 14.0094M46.3664 14.0094C44.8595 8.71745 33.4151 2.46422 28.0564 12.9384C17.3732 7.00778 9.55769 17.5694 10.5633 24.5503C0.243832 23.7029 -0.907572 38.7346 8.03803 41.1316C16.9836 43.5285 50.2103 44.7614 58.3254 43.1007C66.4406 41.4401 69.7963 28.9164 55.7232 24.1868C61.0786 15.6505 48.9993 9.92101 46.3664 14.0094Z" stroke="#212121" stroke-width="1.85221"/>
<path d="M4.16163 27.7454C0.45717 33.3019 3.49932 39.9155 8.03809 41.1316C10.3488 41.7508 14.2796 42.2923 18.9792 42.7263C9.34772 41.3751 3.23548 34.228 4.16163 27.7454Z" fill="#B9B9B9"/>
<path d="M14.3487 26.8192L10.6443 24.967C10.173 21.6954 11.5581 17.221 14.3487 14.4426C11.3852 18.6181 13.1139 24.4335 14.3487 26.8192Z" fill="#B9B9B9"/>
<path d="M54.1713 14.7798C55.7633 16.8363 57.796 20.883 55.7233 24.1868C55.5173 24.3064 53.6647 24.8056 51.4795 25.8514C51.4508 25.8655 51.422 25.8794 51.393 25.8931C51.4219 25.8791 51.4507 25.8652 51.4795 25.8514C55.8194 23.7252 56.1756 17.6133 54.1713 14.7798Z" fill="#B9B9B9"/>
<path d="M50.936 43.5255C53.4938 43.4017 56.9578 43.3807 58.3255 43.1008C62.5773 42.2307 69.4581 36.8575 61.864 27.4112C64.7621 37.9688 60.5675 40.7471 50.936 43.5255Z" fill="#B9B9B9"/>
<path d="M46.4268 15.9432C46.5889 15.3383 46.5578 14.6816 46.3664 14.0094M46.3664 14.0094C44.8595 8.71745 33.4151 2.46422 28.0564 12.9384C17.3732 7.00778 9.55769 17.5694 10.5633 24.5503C0.243832 23.7029 -0.907572 38.7346 8.03803 41.1316C16.9836 43.5285 50.2103 44.7614 58.3254 43.1007C66.4406 41.4401 69.7963 28.9164 55.7232 24.1868C61.0786 15.6505 48.9993 9.92101 46.3664 14.0094Z" stroke="#212121" stroke-width="1.85221"/>
<path d="M23.677 32.8581C26.0568 38.2896 37.9256 40.5111 40.7377 33.5944M23.677 32.8581L24.8113 32.2033M23.677 32.8581L22.5428 33.513M40.7377 33.5944L42.2871 34.9684M40.7377 33.5944L40.0828 32.4602" stroke="#212121" stroke-width="1.85221"/>
<circle cx="23.3905" cy="23.1935" r="4.63053" transform="rotate(15 23.3905 23.1935)" fill="#212121"/>
<circle cx="39.8353" cy="23.1935" r="4.63053" transform="rotate(15 39.8353 23.1935)" fill="#212121"/>
<circle cx="22.7262" cy="21.7152" r="1.85221" transform="rotate(15 22.7262 21.7152)" fill="white"/>
<circle cx="39.171" cy="21.7152" r="1.85221" transform="rotate(15 39.171 21.7152)" fill="white"/>
<circle cx="21.4307" cy="23.7777" r="0.794222" transform="rotate(15 21.4307 23.7777)" fill="white"/>
<circle cx="37.8751" cy="23.7777" r="0.794222" transform="rotate(15 37.8751 23.7777)" fill="white"/>
</svg>
