<svg width="62" height="64" viewBox="0 0 62 64" fill="none" xmlns="http://www.w3.org/2000/svg">
<path d="M32.1416 3.48347L31.3888 2.38635L30.636 3.48347L25.7603 10.5894L18.0863 6.94266L16.9001 6.379L16.785 7.68722L16.021 16.368L7.58508 17.1505L6.31138 17.2687L6.83712 18.4348L10.4089 26.3574L3.46498 31.3794L2.44212 32.1192L3.46498 32.8589L10.4089 37.881L6.83712 45.8035L6.31138 46.9697L7.58508 47.0878L16.021 47.8703L16.785 56.5511L16.9001 57.8594L18.0863 57.2957L25.7603 53.649L30.636 60.7549L31.3888 61.852L32.1416 60.7549L37.0173 53.649L44.6914 57.2957L45.8775 57.8594L45.9927 56.5511L46.7566 47.8703L55.1925 47.0878L56.4662 46.9697L55.9405 45.8035L52.3688 37.881L59.3126 32.8589L60.3355 32.1192L59.3126 31.3794L52.3688 26.3574L55.9405 18.4348L56.4662 17.2687L55.1925 17.1505L46.7566 16.368L45.9927 7.68722L45.8775 6.379L44.6914 6.94266L37.0173 10.5894L32.1416 3.48347Z" fill="#F49200" stroke="black" stroke-width="1.82592"/>
<circle cx="31.3891" cy="32.1192" r="18.2592" fill="#F4C700"/>
<path d="M24.1267 36.101C26.3312 41.1327 37.3264 43.1906 39.9315 36.7831M24.1267 36.101L25.1774 35.4943M24.1267 36.101L23.0759 36.7076M39.9315 36.7831L41.3669 38.0559M39.9315 36.7831L39.3249 35.7323" stroke="#212121" stroke-width="1.71587"/>
<circle cx="23.8614" cy="27.1477" r="4.28968" transform="rotate(15 23.8614 27.1477)" fill="#212121"/>
<circle cx="39.0953" cy="27.1477" r="4.28968" transform="rotate(15 39.0953 27.1477)" fill="#212121"/>
<circle cx="23.246" cy="25.7783" r="1.71587" transform="rotate(15 23.246 25.7783)" fill="white"/>
<circle cx="38.4799" cy="25.7783" r="1.71587" transform="rotate(15 38.4799 25.7783)" fill="white"/>
<circle cx="22.0452" cy="27.689" r="0.735761" transform="rotate(15 22.0452 27.689)" fill="white"/>
<circle cx="37.28" cy="27.689" r="0.735761" transform="rotate(15 37.28 27.689)" fill="white"/>
</svg>
