<svg width="47" height="82" viewBox="0 0 47 82" fill="none" xmlns="http://www.w3.org/2000/svg">
<path d="M30.5783 11.3389C33.1608 20.5212 31.6543 39.0773 30.5783 47.2076C31.1761 48.0445 33.2325 50.0053 36.6759 51.1531C41.3388 47.9249 45.6431 28.9146 44.9256 18.1539C44.2082 7.39323 27.3501 -0.139141 30.5783 11.3389Z" fill="#D9D9D9" stroke="black" stroke-width="2.15212"/>
<path d="M19.862 11.5071C17.2794 20.6895 18.7859 39.2456 19.862 47.3759C19.2642 48.2128 17.2078 50.1736 13.7644 51.3214C9.10144 48.0932 -1.74865 25.3275 3.3177 11.5071C8.38404 -2.31325 23.0902 0.0291487 19.862 11.5071Z" fill="#D9D9D9" stroke="black" stroke-width="2.15212"/>
<mask id="path-3-inside-1_434_2236" fill="white">
<path fill-rule="evenodd" clip-rule="evenodd" d="M9.00714 78.7318C6.4707 77.5875 4.62607 75.2682 4.2574 72.5101C4.1106 71.4119 4.03516 70.295 4.03516 69.1628C4.03516 58.5162 10.7073 49.215 20.6385 44.2057C23.0528 42.9879 25.9077 42.9879 28.322 44.2057C38.2532 49.215 44.9253 58.5162 44.9253 69.1628C44.9253 70.2951 44.8498 71.4121 44.703 72.5104C44.3343 75.2685 42.4896 77.5878 39.9531 78.7321C35.326 80.8196 30.0629 82 24.4805 82C18.8978 82 13.6344 80.8195 9.00714 78.7318Z"/>
</mask>
<path fill-rule="evenodd" clip-rule="evenodd" d="M9.00714 78.7318C6.4707 77.5875 4.62607 75.2682 4.2574 72.5101C4.1106 71.4119 4.03516 70.295 4.03516 69.1628C4.03516 58.5162 10.7073 49.215 20.6385 44.2057C23.0528 42.9879 25.9077 42.9879 28.322 44.2057C38.2532 49.215 44.9253 58.5162 44.9253 69.1628C44.9253 70.2951 44.8498 71.4121 44.703 72.5104C44.3343 75.2685 42.4896 77.5878 39.9531 78.7321C35.326 80.8196 30.0629 82 24.4805 82C18.8978 82 13.6344 80.8195 9.00714 78.7318Z" fill="#D9D9D9"/>
<path d="M44.703 72.5104L42.5699 72.2252L44.703 72.5104ZM39.9531 78.7321L39.0681 76.7704L39.9531 78.7321ZM1.88303 69.1628C1.88303 70.3907 1.96487 71.6029 2.12425 72.7952L6.39055 72.2249C6.25633 71.2209 6.18728 70.1992 6.18728 69.1628H1.88303ZM19.6692 42.2842C9.15279 47.5886 1.88303 57.5579 1.88303 69.1628H6.18728C6.18728 59.4745 12.2617 50.8413 21.6077 46.1272L19.6692 42.2842ZM47.0774 69.1628C47.0774 57.5579 39.8077 47.5886 29.2912 42.2842L27.3528 46.1272C36.6987 50.8413 42.7732 59.4745 42.7732 69.1628H47.0774ZM46.8362 72.7955C46.9956 71.6031 47.0774 70.3908 47.0774 69.1628H42.7732C42.7732 70.1993 42.7041 71.2211 42.5699 72.2252L46.8362 72.7955ZM39.0681 76.7704C34.7207 78.7317 29.7594 79.8479 24.4805 79.8479V84.1522C30.3664 84.1522 35.9313 82.9075 40.8382 80.6939L39.0681 76.7704ZM24.4805 79.8479C19.2012 79.8479 14.2398 78.7316 9.8922 76.7701L8.12209 80.6936C13.0291 82.9074 18.5943 84.1522 24.4805 84.1522V79.8479ZM42.5699 72.2252C42.3072 74.1902 40.9803 75.9078 39.0681 76.7704L40.8382 80.6939C43.999 79.2679 46.3614 76.3468 46.8362 72.7955L42.5699 72.2252ZM21.6077 46.1272C23.4124 45.2169 25.548 45.2169 27.3528 46.1272L29.2912 42.2842C26.2673 40.7589 22.6932 40.7589 19.6692 42.2842L21.6077 46.1272ZM2.12425 72.7952C2.59894 76.3465 4.96129 79.2675 8.12209 80.6936L9.8922 76.7701C7.9801 75.9075 6.6532 74.1899 6.39055 72.2249L2.12425 72.7952Z" fill="black" mask="url(#path-3-inside-1_434_2236)"/>
<circle cx="18.8074" cy="60.9034" r="4.4467" transform="rotate(15 18.8074 60.9034)" fill="#212121"/>
<circle cx="18.1693" cy="59.4838" r="1.77868" transform="rotate(15 18.1693 59.4838)" fill="white"/>
<circle cx="16.925" cy="61.4644" r="0.762693" transform="rotate(15 16.925 61.4644)" fill="white"/>
<circle cx="30.2849" cy="60.9033" r="4.4467" transform="rotate(15 30.2849 60.9033)" fill="#212121"/>
<circle cx="29.6469" cy="59.4837" r="1.77868" transform="rotate(15 29.6469 59.4837)" fill="white"/>
<circle cx="28.4031" cy="61.4643" r="0.762693" transform="rotate(15 28.4031 61.4643)" fill="white"/>
<ellipse cx="25.198" cy="68.0113" rx="3.94556" ry="2.51081" fill="#212121"/>
<path d="M19.8179 73.7503C23.5482 77.1937 24.9591 72.3155 25.1982 69.446C25.3177 71.8373 25.1982 76.6198 29.8611 74.4677" stroke="#212121" stroke-width="0.717375"/>
</svg>
