<svg width="30.801270" height="28.999878" viewBox="0 0 30.8013 28.9999" fill="none" xmlns="http://www.w3.org/2000/svg" xmlns:xlink="http://www.w3.org/1999/xlink">
	<desc>
			Created with Pixso.
	</desc>
	<defs/>
	<path id="cancel" d="M15.4006 17.8864L26.4487 28.2885C27.4561 29.2368 29.0386 29.2368 30.0457 28.2885C31.053 27.3403 31.053 25.8501 30.0457 24.9019L18.9976 14.4996L30.0454 4.09802C31.0522 3.14978 31.0522 1.65955 30.0454 0.711304C29.0381 -0.236938 27.4553 -0.236938 26.448 0.711304L15.4006 11.1129L4.35327 0.711182C3.34595 -0.237061 1.76318 -0.237061 0.756104 0.711182C-0.250977 1.65942 -0.250977 3.14954 0.756104 4.0979L11.8037 14.4996L0.755615 24.902C-0.251953 25.8502 -0.251953 27.3403 0.755615 28.2887C1.7627 29.2369 3.34521 29.2369 4.35254 28.2887L15.4006 17.8864Z" fill="#004FE4" fill-opacity="1.000000" fill-rule="evenodd"/>
</svg>
