<svg width="20.000000" height="20.000000" viewBox="0 0 20 20" fill="none" xmlns="http://www.w3.org/2000/svg" xmlns:xlink="http://www.w3.org/1999/xlink">
	<desc>
			Created with Pixso.
	</desc>
	<defs>
		<clipPath id="clip95_494">
			<rect id="info_circle_outline_20" width="20.000000" height="20.000000" fill="white" fill-opacity="0"/>
		</clipPath>
	</defs>
	<g clip-path="url(#clip95_494)">
		<path id="↳ Icon Color" d="M10 1.5C7.65295 1.5 5.52698 2.45215 3.98962 3.9895C2.45227 5.52686 1.5 7.65308 1.5 10C1.5 12.3469 2.45227 14.4731 3.98962 16.0105C5.52698 17.5479 7.65295 18.5 10 18.5C12.347 18.5 14.473 17.5479 16.0104 16.0105C17.5477 14.4731 18.5 12.3469 18.5 10C18.5 7.65308 17.5477 5.52686 16.0104 3.9895C14.473 2.45215 12.347 1.5 10 1.5ZM5.05029 5.05029C6.31787 3.78271 8.06677 3 10 3C11.9332 3 13.6821 3.78271 14.9497 5.05029C16.2173 6.31787 17 8.06689 17 10C17 11.9331 16.2173 13.6821 14.9497 14.9497C13.6821 16.2173 11.9332 17 10 17C8.06677 17 6.31787 16.2173 5.05029 14.9497C3.78271 13.6821 3 11.9331 3 10C3 8.06689 3.78271 6.31787 5.05029 5.05029ZM11 7C11 7.55225 10.5522 8 10 8C9.44775 8 9 7.55225 9 7C9 6.44775 9.44775 6 10 6C10.5522 6 11 6.44775 11 7ZM10 9.25C10.4142 9.25 10.75 9.58569 10.75 10L10.75 14C10.75 14.4143 10.4142 14.75 10 14.75C9.58582 14.75 9.25 14.4143 9.25 14L9.25 10C9.25 9.58569 9.58582 9.25 10 9.25Z" fill="#2688EB" fill-opacity="1.000000" fill-rule="evenodd"/>
	</g>
</svg>
