<svg width="101.000000" height="110.000000" viewBox="0 0 101 110" fill="none" xmlns="http://www.w3.org/2000/svg" xmlns:xlink="http://www.w3.org/1999/xlink">
	<desc>
			Created with Pixso.
	</desc>
	<defs/>
	<path id="↳ Icon Color" d="M68.8636 29.0278C68.8636 18.0535 59.9621 9.16675 48.9697 9.16675C37.9773 9.16675 29.0757 18.0535 29.0757 29.0278C29.0757 40.002 37.9773 48.8889 48.9697 48.8889C59.9621 48.8889 68.8636 40.002 68.8636 29.0278ZM78.0455 29.0278C78.0455 45.0647 65.0331 58.0557 48.9697 58.0557C32.9063 58.0557 19.8939 45.0647 19.8939 29.0278C19.8939 12.991 32.9063 0 48.9697 0C65.0331 0 78.0455 12.991 78.0455 29.0278ZM9.18182 94.9404C9.18182 100.844 9.17224 100.833 12.6925 100.833L88.3075 100.833C91.8278 100.833 91.8182 100.844 91.8182 94.9404C91.8182 81.1721 72.9589 73.3333 50.5 73.3333C28.0411 73.3333 9.18182 81.1721 9.18182 94.9404ZM50.5 64.1667C77.5509 64.1667 101 73.9131 101 94.9404C101 105.734 97.0897 110 88.3075 110L12.6925 110C3.91034 110 0 105.734 0 94.9404C0 73.9131 23.4491 64.1667 50.5 64.1667Z" fill="#FFFFFF" fill-opacity="1.000000" fill-rule="nonzero"/>
</svg>
