<svg width="113.000000" height="113.000000" viewBox="0 0 113 113" fill="none" xmlns="http://www.w3.org/2000/svg" xmlns:xlink="http://www.w3.org/1999/xlink">
	<desc>
			Created with Pixso.
	</desc>
	<defs/>
	<path id="↳ Icon Color" d="M43.4103 97.5044C45.1178 100.568 46.8284 103.162 48.3632 105.271C32.1733 102.59 18.6394 92.0427 11.8201 77.6875L35.5585 77.6875C37.5652 85.6216 40.4846 92.2554 43.4103 97.5044ZM42.8651 77.6875C44.6737 84.1926 47.1292 89.6702 49.5792 94.0659C51.9656 98.3474 54.3447 101.598 56.1094 103.76C56.2432 103.924 56.3735 104.082 56.5 104.233C56.6265 104.082 56.7568 103.924 56.8906 103.76C58.6553 101.598 61.0344 98.3474 63.4208 94.0659C65.8708 89.6702 68.3263 84.1926 70.1349 77.6875L42.8651 77.6875ZM71.7428 70.625L41.2572 70.625C40.4806 66.2798 40.0209 61.5674 40.0209 56.5C40.0209 51.4326 40.4806 46.7202 41.2572 42.375L71.7428 42.375C72.5194 46.7202 72.9791 51.4326 72.9791 56.5C72.9791 61.5674 72.5194 66.2798 71.7428 70.625ZM77.4415 77.6875C75.4348 85.6216 72.5154 92.2554 69.5897 97.5044C67.8822 100.568 66.1716 103.162 64.6368 105.271C80.8267 102.59 94.3606 92.0427 101.18 77.6875L77.4415 77.6875ZM103.89 70.625L78.908 70.625C79.6246 66.24 80.0416 61.5278 80.0416 56.5C80.0416 51.4719 79.6246 46.76 78.908 42.375L103.89 42.375C105.222 46.8506 105.938 51.5918 105.938 56.5C105.938 61.4082 105.222 66.1494 103.89 70.625ZM34.092 70.625L9.10974 70.625C7.77783 66.1494 7.0625 61.4082 7.0625 56.5C7.0625 51.5918 7.77783 46.8506 9.10974 42.375L34.092 42.375C33.3754 46.76 32.9584 51.4719 32.9584 56.5C32.9584 61.5278 33.3754 66.24 34.092 70.625ZM35.5585 35.3125L11.8201 35.3125C18.6394 20.9573 32.1733 10.4099 48.3632 7.729C46.8284 9.83838 45.1178 12.4321 43.4103 15.4956C40.4846 20.7446 37.5652 27.3784 35.5585 35.3125ZM49.5792 18.9341C47.1292 23.3298 44.6737 28.8074 42.8651 35.3125L70.1349 35.3125C68.3263 28.8074 65.8708 23.3298 63.4208 18.9341C61.0344 14.6526 58.6553 11.4023 56.8906 9.23975C56.7568 9.07568 56.6265 8.91797 56.5 8.7666C56.3735 8.91797 56.2432 9.07568 56.1094 9.23975C54.3447 11.4023 51.9656 14.6526 49.5792 18.9341ZM77.4415 35.3125L101.18 35.3125C94.3606 20.9573 80.8267 10.4099 64.6368 7.729C66.1716 9.83838 67.8822 12.4321 69.5897 15.4956C72.5154 20.7446 75.4348 27.3784 77.4415 35.3125ZM56.5 113C87.7041 113 113 87.7041 113 56.5C113 25.2959 87.7041 0 56.5 0C25.2959 0 0 25.2959 0 56.5C0 87.7041 25.2959 113 56.5 113Z" fill="#FFFFFF" fill-opacity="1.000000" fill-rule="evenodd"/>
</svg>
