<svg width="64.000000" height="38.000000" viewBox="0 0 64 38" fill="none" xmlns="http://www.w3.org/2000/svg" xmlns:xlink="http://www.w3.org/1999/xlink">
	<desc>
			Created with Pixso.
	</desc>
	<defs/>
	<rect id="фрейм 2" width="64.000000" height="38.000000" fill="#FFFFFF" fill-opacity="0"/>
	<rect id="people" width="30.000000" height="38.000000" fill="#FFFFFF" fill-opacity="0"/>
	<path id="Прямоугольник 26" d="M25 20C27.7614 20 30 22.2386 30 25L30 38L0 38L0 25C0 22.2386 2.23859 20 5 20L25 20ZM25 23C26.1046 23 27 23.8954 27 25L27 35L3 35L3 25C3 23.8954 3.89545 23 5 23L25 23Z" fill="#7A8FB7" fill-opacity="1.000000" fill-rule="evenodd"/>
	<circle id="Эллипс 15" cx="15.000000" cy="9.000000" r="7.500000" stroke="#7A8FB7" stroke-opacity="1.000000" stroke-width="3.000000"/>
	<rect id="people" width="30.000000" height="38.000000" transform="translate(34.000000 0.000000)" fill="#FFFFFF" fill-opacity="0"/>
	<path id="Прямоугольник 26" d="M59 20C61.7614 20 64 22.2386 64 25L64 38L34 38L34 25C34 22.2386 36.2386 20 39 20L59 20ZM59 23C60.1046 23 61 23.8954 61 25L61 35L37 35L37 25C37 23.8954 37.8954 23 39 23L59 23Z" fill="#B77A7A" fill-opacity="1.000000" fill-rule="evenodd"/>
	<circle id="Эллипс 15" cx="49.000000" cy="9.000000" r="7.500000" stroke="#B77A7A" stroke-opacity="1.000000" stroke-width="3.000000"/>
</svg>
