<svg width="24.000000" height="23.999146" viewBox="0 0 44 43.9991" fill="none" xmlns="http://www.w3.org/2000/svg" xmlns:xlink="http://www.w3.org/1999/xlink">
	<desc>
			Created with Pixso.
	</desc>
	<defs/>
	<rect id="cancel" width="44.000000" height="43.999146" fill="#FFFFFF" fill-opacity="0"/>
	<path id="cancel" d="M22 27.1375L37.7822 42.9199C39.2217 44.3588 41.4824 44.3588 42.9209 42.9199C44.3599 41.4812 44.3599 39.2203 42.9209 37.7816L27.1382 21.9991L42.9204 6.21765C44.3589 4.77893 44.3589 2.51794 42.9204 1.07922C41.4814 -0.359497 39.2207 -0.359497 37.7812 1.07922L22 16.8608L6.21875 1.0791C4.77979 -0.359741 2.51904 -0.359741 1.07959 1.0791C-0.358887 2.51782 -0.358887 4.77869 1.07959 6.21741L16.8618 21.9991L1.0791 37.7819C-0.359863 39.2205 -0.359863 41.4813 1.0791 42.9202C2.51807 44.3588 4.77832 44.3588 6.21777 42.9202L22 27.1375Z" fill="#7A8FB7" fill-opacity="1.000000" fill-rule="evenodd"/>
</svg>
