<svg width="133.000000" height="99.000000" viewBox="0 0 133 99" fill="none" xmlns="http://www.w3.org/2000/svg" xmlns:xlink="http://www.w3.org/1999/xlink">
	<desc>
			Created with Pixso.
	</desc>
	<defs/>
	<path id="↳ Icon Color" d="M100.523 61.875C117.872 61.875 133 70.2236 133 86.625C133 94.7461 127.329 99 120.628 99L94.3372 99C91.7749 99 89.6978 96.9224 89.6978 94.3594C89.6978 91.7964 91.7749 89.7188 94.3372 89.7188L120.628 89.7188C122.69 89.7188 123.721 88.9453 123.721 86.625C123.721 76.8362 113.428 71.1562 100.523 71.1562C98.3254 71.1562 95.9397 71.3721 93.6394 71.8003C91.1204 72.2692 88.6982 70.6066 88.2295 68.0869C87.7607 65.5671 89.4229 63.1445 91.9419 62.6757C94.8076 62.1423 97.7615 61.875 100.523 61.875ZM41.7559 55.6875C64.5078 55.6875 83.5117 64.4604 83.5117 83.5312C83.5117 93.0552 77.5681 99 69.593 99L13.9187 99C5.61011 99 0 94.6356 0 85.0781C0 64.8289 18.7593 55.6875 41.7559 55.6875ZM41.7559 64.9688C23.2407 64.9688 9.27905 71.7721 9.27905 85.0781C9.27905 88.9269 10.2969 89.7188 13.9187 89.7188L69.593 89.7188C72.4434 89.7188 74.2327 87.9292 74.2327 83.5312C74.2327 71.5455 59.9863 64.9688 41.7559 64.9688ZM98.9768 12.375C110.08 12.375 119.081 21.3783 119.081 32.4844C119.081 43.5905 110.08 52.5938 98.9768 52.5938C87.8733 52.5938 78.8721 43.5905 78.8721 32.4844C78.8721 21.3783 87.8733 12.375 98.9768 12.375ZM41.7559 0C54.5676 0 64.9536 10.3884 64.9536 23.2031C64.9536 36.0178 54.5676 46.4062 41.7559 46.4062C28.9441 46.4062 18.5581 36.0178 18.5581 23.2031C18.5581 10.3884 28.9441 0 41.7559 0ZM98.9768 21.6562C92.998 21.6562 88.1511 26.5042 88.1511 32.4844C88.1511 38.4646 92.998 43.3125 98.9768 43.3125C104.956 43.3125 109.802 38.4646 109.802 32.4844C109.802 26.5042 104.956 21.6562 98.9768 21.6562ZM41.7559 9.28125C34.0688 9.28125 27.8372 15.5143 27.8372 23.2031C27.8372 30.892 34.0688 37.125 41.7559 37.125C49.4429 37.125 55.6743 30.892 55.6743 23.2031C55.6743 15.5143 49.4429 9.28125 41.7559 9.28125Z" fill="#FFFFFF" fill-opacity="1.000000" fill-rule="nonzero"/>
</svg>
